<svg xmlns="http://www.w3.org/2000/svg" width="520" height="960" viewBox="0 0 520 960"><text x="260" y="42" fill="#111827" font-size="32" font-weight="700" text-anchor="middle">jdb_fsst vs fsst Benchmark</text><text x="260" y="68" fill="#6b7280" font-size="14" text-anchor="middle">Performance Comparison</text><text x="260" y="115" fill="#374151" font-size="16" font-weight="600" text-anchor="middle">Encode Throughput (MB/s)</text><path stroke="#e5e7eb" d="M70 310h400"/><text x="58" y="315" fill="#9ca3af" font-size="12" text-anchor="end">0.0</text><path stroke="#e5e7eb" stroke-dasharray="4,4" d="M70 271.25h400"/><text x="58" y="276.25" fill="#9ca3af" font-size="12" text-anchor="end">92.9</text><path stroke="#e5e7eb" stroke-dasharray="4,4" d="M70 232.5h400"/><text x="58" y="237.5" fill="#9ca3af" font-size="12" text-anchor="end">185.8</text><path stroke="#e5e7eb" stroke-dasharray="4,4" d="M70 193.75h400"/><text x="58" y="198.75" fill="#9ca3af" font-size="12" text-anchor="end">278.7</text><path stroke="#e5e7eb" stroke-dasharray="4,4" d="M70 155h400"/><text x="58" y="160" fill="#9ca3af" font-size="12" text-anchor="end">371.6</text><path fill="#f97316" d="M160 155h65v155h-65z"/><path fill="#fb9d5c" d="M160 155h9.75v155H160z" opacity=".4"/><path fill="#fb9d5c" d="m160 155 10-10h65l-10 10z"/><path fill="#ae510f" d="m225 155 10-10v155l-10 10z"/><text x="197.5" y="137" fill="#059669" font-size="13" font-weight="600" text-anchor="middle">371.6</text><text x="192.5" y="332" fill="#4b5563" font-size="13" font-weight="500" text-anchor="middle">jdb_fsst</text><path fill="#3b82f6" d="M315 195.718h65V310h-65z"/><path fill="#76a8f9" d="M315 195.718h9.75V310H315z" opacity=".4"/><path fill="#76a8f9" d="m315 195.718 10-10h65l-10 10z"/><path fill="#295bac" d="m380 195.718 10-10V300l-10 10z"/><text x="352.5" y="177.718" fill="#374151" font-size="13" font-weight="600" text-anchor="middle">274.0</text><text x="347.5" y="332" fill="#4b5563" font-size="13" font-weight="500" text-anchor="middle">fsst</text><text x="260" y="410" fill="#374151" font-size="16" font-weight="600" text-anchor="middle">Decode Throughput (MB/s)</text><path stroke="#e5e7eb" d="M70 605h400"/><text x="58" y="610" fill="#9ca3af" font-size="12" text-anchor="end">0.0</text><path stroke="#e5e7eb" stroke-dasharray="4,4" d="M70 566.25h400"/><text x="58" y="571.25" fill="#9ca3af" font-size="12" text-anchor="end">1037.8</text><path stroke="#e5e7eb" stroke-dasharray="4,4" d="M70 527.5h400"/><text x="58" y="532.5" fill="#9ca3af" font-size="12" text-anchor="end">2075.5</text><path stroke="#e5e7eb" stroke-dasharray="4,4" d="M70 488.75h400"/><text x="58" y="493.75" fill="#9ca3af" font-size="12" text-anchor="end">3113.3</text><path stroke="#e5e7eb" stroke-dasharray="4,4" d="M70 450h400"/><text x="58" y="455" fill="#9ca3af" font-size="12" text-anchor="end">4151.0</text><path fill="#f97316" d="M160 450h65v155h-65z"/><path fill="#fb9d5c" d="M160 450h9.75v155H160z" opacity=".4"/><path fill="#fb9d5c" d="m160 450 10-10h65l-10 10z"/><path fill="#ae510f" d="m225 450 10-10v155l-10 10z"/><text x="197.5" y="432" fill="#059669" font-size="13" font-weight="600" text-anchor="middle">4151.0</text><text x="192.5" y="627" fill="#4b5563" font-size="13" font-weight="500" text-anchor="middle">jdb_fsst</text><path fill="#3b82f6" d="M315 474.292h65V605h-65z"/><path fill="#76a8f9" d="M315 474.292h9.75V605H315z" opacity=".4"/><path fill="#76a8f9" d="m315 474.292 10-10h65l-10 10z"/><path fill="#295bac" d="m380 474.292 10-10V595l-10 10z"/><text x="352.5" y="456.292" fill="#374151" font-size="13" font-weight="600" text-anchor="middle">3500.4</text><text x="347.5" y="627" fill="#4b5563" font-size="13" font-weight="500" text-anchor="middle">fsst</text><text x="260" y="705" fill="#374151" font-size="16" font-weight="600" text-anchor="middle">Compression Ratio (%) (lower is better)</text><path stroke="#e5e7eb" d="M70 900h400"/><text x="58" y="905" fill="#9ca3af" font-size="12" text-anchor="end">0.00</text><path stroke="#e5e7eb" stroke-dasharray="4,4" d="M70 861.25h400"/><text x="58" y="866.25" fill="#9ca3af" font-size="12" text-anchor="end">13.17</text><path stroke="#e5e7eb" stroke-dasharray="4,4" d="M70 822.5h400"/><text x="58" y="827.5" fill="#9ca3af" font-size="12" text-anchor="end">26.34</text><path stroke="#e5e7eb" stroke-dasharray="4,4" d="M70 783.75h400"/><text x="58" y="788.75" fill="#9ca3af" font-size="12" text-anchor="end">39.50</text><path stroke="#e5e7eb" stroke-dasharray="4,4" d="M70 745h400"/><text x="58" y="750" fill="#9ca3af" font-size="12" text-anchor="end">52.67</text><path fill="#f97316" d="M160 751.533h65V900h-65z"/><path fill="#fb9d5c" d="M160 751.533h9.75V900H160z" opacity=".4"/><path fill="#fb9d5c" d="m160 751.533 10-10h65l-10 10z"/><path fill="#ae510f" d="m225 751.533 10-10V890l-10 10z"/><text x="197.5" y="733.533" fill="#374151" font-size="13" font-weight="600" text-anchor="middle">50.45</text><text x="192.5" y="922" fill="#4b5563" font-size="13" font-weight="500" text-anchor="middle">jdb_fsst</text><path fill="#3b82f6" d="M315 745h65v155h-65z"/><path fill="#76a8f9" d="M315 745h9.75v155H315z" opacity=".4"/><path fill="#76a8f9" d="m315 745 10-10h65l-10 10z"/><path fill="#295bac" d="m380 745 10-10v155l-10 10z"/><text x="352.5" y="727" fill="#059669" font-size="13" font-weight="600" text-anchor="middle">52.67</text><text x="347.5" y="922" fill="#4b5563" font-size="13" font-weight="500" text-anchor="middle">fsst</text></svg>