<svg xmlns="http://www.w3.org/2000/svg" width="520" height="1200" viewBox="0 0 520 1200"><text x="260" y="42" fill="#111827" font-size="32" font-weight="700" text-anchor="middle">jdb_fsst vs fsst Benchmark</text><text x="260" y="68" fill="#6b7280" font-size="14" font-weight="400" text-anchor="middle">Performance Comparison</text><text x="260" y="110" fill="#374151" font-size="16" font-weight="600" text-anchor="middle">Encode Throughput (MB/s)</text><path stroke="#e5e7eb" d="M70 315h400"/><text x="58" y="320" fill="#9ca3af" font-size="12" text-anchor="end">0.0</text><path stroke="#e5e7eb" stroke-dasharray="4,4" d="M70 276.25h400"/><text x="58" y="281.25" fill="#9ca3af" font-size="12" text-anchor="end">88.0</text><path stroke="#e5e7eb" stroke-dasharray="4,4" d="M70 237.5h400"/><text x="58" y="242.5" fill="#9ca3af" font-size="12" text-anchor="end">175.9</text><path stroke="#e5e7eb" stroke-dasharray="4,4" d="M70 198.75h400"/><text x="58" y="203.75" fill="#9ca3af" font-size="12" text-anchor="end">263.9</text><path stroke="#e5e7eb" stroke-dasharray="4,4" d="M70 160h400"/><text x="58" y="165" fill="#9ca3af" font-size="12" text-anchor="end">351.8</text><path fill="#f97316" d="M160 160h65v155h-65z"/><path fill="#fb9d5c" d="M160 160h9.75v155H160z" opacity=".4"/><path fill="#fb9d5c" d="m160 160 10-10h65l-10 10z"/><path fill="#ae510f" d="m225 160 10-10v155l-10 10z"/><path fill="none" stroke="#ef4444" stroke-width="1.2" d="m169 131 2 4h4l-3 3 1 4-4-2-4 2 1-4-3-3h4z"/><text x="197.5" y="142" font-size="13" font-weight="700" text-anchor="middle">351.8</text><text x="192.5" y="337" fill="#4b5563" font-size="13" font-weight="500" text-anchor="middle">jdb_fsst</text><path fill="#3b82f6" d="M315 197.25h65V315h-65z"/><path fill="#76a8f9" d="M315 197.25h9.75V315H315z" opacity=".4"/><path fill="#76a8f9" d="m315 197.25 10-10h65l-10 10z"/><path fill="#295bac" d="m380 197.25 10-10V305l-10 10z"/><text x="352.5" y="179.25" fill="#374151" font-size="13" font-weight="400" text-anchor="middle">267.3</text><text x="347.5" y="337" fill="#4b5563" font-size="13" font-weight="500" text-anchor="middle">fsst</text><text x="260" y="390" fill="#374151" font-size="16" font-weight="600" text-anchor="middle">Batch Decode Throughput (MB/s)</text><path stroke="#e5e7eb" d="M70 595h400"/><text x="58" y="600" fill="#9ca3af" font-size="12" text-anchor="end">0.0</text><path stroke="#e5e7eb" stroke-dasharray="4,4" d="M70 556.25h400"/><text x="58" y="561.25" fill="#9ca3af" font-size="12" text-anchor="end">1666.9</text><path stroke="#e5e7eb" stroke-dasharray="4,4" d="M70 517.5h400"/><text x="58" y="522.5" fill="#9ca3af" font-size="12" text-anchor="end">3333.8</text><path stroke="#e5e7eb" stroke-dasharray="4,4" d="M70 478.75h400"/><text x="58" y="483.75" fill="#9ca3af" font-size="12" text-anchor="end">5000.8</text><path stroke="#e5e7eb" stroke-dasharray="4,4" d="M70 440h400"/><text x="58" y="445" fill="#9ca3af" font-size="12" text-anchor="end">6667.7</text><path fill="#f97316" d="M160 440h65v155h-65z"/><path fill="#fb9d5c" d="M160 440h9.75v155H160z" opacity=".4"/><path fill="#fb9d5c" d="m160 440 10-10h65l-10 10z"/><path fill="#ae510f" d="m225 440 10-10v155l-10 10z"/><path fill="none" stroke="#ef4444" stroke-width="1.2" d="m165.1 411 2 4h4l-3 3 1 4-4-2-4 2 1-4-3-3h4z"/><text x="197.5" y="422" font-size="13" font-weight="700" text-anchor="middle">6667.7</text><text x="192.5" y="617" fill="#4b5563" font-size="13" font-weight="500" text-anchor="middle">jdb_fsst</text><path fill="#3b82f6" d="M315 512.192h65V595h-65z"/><path fill="#76a8f9" d="M315 512.192h9.75V595H315z" opacity=".4"/><path fill="#76a8f9" d="m315 512.192 10-10h65l-10 10z"/><path fill="#295bac" d="m380 512.192 10-10V585l-10 10z"/><text x="352.5" y="494.192" fill="#374151" font-size="13" font-weight="400" text-anchor="middle">3562.2</text><text x="347.5" y="617" fill="#4b5563" font-size="13" font-weight="500" text-anchor="middle">fsst</text><text x="260" y="670" fill="#374151" font-size="16" font-weight="600" text-anchor="middle">Random Decode Throughput (MB/s)</text><path stroke="#e5e7eb" d="M70 875h400"/><text x="58" y="880" fill="#9ca3af" font-size="12" text-anchor="end">0.0</text><path stroke="#e5e7eb" stroke-dasharray="4,4" d="M70 836.25h400"/><text x="58" y="841.25" fill="#9ca3af" font-size="12" text-anchor="end">734.0</text><path stroke="#e5e7eb" stroke-dasharray="4,4" d="M70 797.5h400"/><text x="58" y="802.5" fill="#9ca3af" font-size="12" text-anchor="end">1468.1</text><path stroke="#e5e7eb" stroke-dasharray="4,4" d="M70 758.75h400"/><text x="58" y="763.75" fill="#9ca3af" font-size="12" text-anchor="end">2202.1</text><path stroke="#e5e7eb" stroke-dasharray="4,4" d="M70 720h400"/><text x="58" y="725" fill="#9ca3af" font-size="12" text-anchor="end">2936.2</text><path fill="#f97316" d="M160 720h65v155h-65z"/><path fill="#fb9d5c" d="M160 720h9.75v155H160z" opacity=".4"/><path fill="#fb9d5c" d="m160 720 10-10h65l-10 10z"/><path fill="#ae510f" d="m225 720 10-10v155l-10 10z"/><path fill="none" stroke="#ef4444" stroke-width="1.2" d="m165.1 691 2 4h4l-3 3 1 4-4-2-4 2 1-4-3-3h4z"/><text x="197.5" y="702" font-size="13" font-weight="700" text-anchor="middle">2936.2</text><text x="192.5" y="897" fill="#4b5563" font-size="13" font-weight="500" text-anchor="middle">jdb_fsst</text><path fill="#3b82f6" d="M315 866.75h65V875h-65z"/><path fill="#76a8f9" d="M315 866.75h9.75V875H315z" opacity=".4"/><path fill="#76a8f9" d="m315 866.75 10-10h65l-10 10z"/><path fill="#295bac" d="m380 866.75 10-10V865l-10 10z"/><text x="352.5" y="848.75" fill="#374151" font-size="13" font-weight="400" text-anchor="middle">156.3</text><text x="347.5" y="897" fill="#4b5563" font-size="13" font-weight="500" text-anchor="middle">fsst</text><text x="260" y="950" fill="#374151" font-size="16" font-weight="600" text-anchor="middle">Compression Ratio (%) (lower is better)</text><path stroke="#e5e7eb" d="M70 1155h400"/><text x="58" y="1160" fill="#9ca3af" font-size="12" text-anchor="end">0.00</text><path stroke="#e5e7eb" stroke-dasharray="4,4" d="M70 1116.25h400"/><text x="58" y="1121.25" fill="#9ca3af" font-size="12" text-anchor="end">13.17</text><path stroke="#e5e7eb" stroke-dasharray="4,4" d="M70 1077.5h400"/><text x="58" y="1082.5" fill="#9ca3af" font-size="12" text-anchor="end">26.34</text><path stroke="#e5e7eb" stroke-dasharray="4,4" d="M70 1038.75h400"/><text x="58" y="1043.75" fill="#9ca3af" font-size="12" text-anchor="end">39.50</text><path stroke="#e5e7eb" stroke-dasharray="4,4" d="M70 1000h400"/><text x="58" y="1005" fill="#9ca3af" font-size="12" text-anchor="end">52.67</text><path fill="#f97316" d="M160 1006.533h65V1155h-65z"/><path fill="#fb9d5c" d="M160 1006.533h9.75V1155H160z" opacity=".4"/><path fill="#fb9d5c" d="m160 1006.533 10-10h65l-10 10z"/><path fill="#ae510f" d="m225 1006.533 10-10V1145l-10 10z"/><path fill="none" stroke="#ef4444" stroke-width="1.2" d="m169 977.533 2 4h4l-3 3 1 4-4-2-4 2 1-4-3-3h4z"/><text x="197.5" y="988.533" font-size="13" font-weight="700" text-anchor="middle">50.45</text><text x="192.5" y="1177" fill="#4b5563" font-size="13" font-weight="500" text-anchor="middle">jdb_fsst</text><path fill="#3b82f6" d="M315 1000h65v155h-65z"/><path fill="#76a8f9" d="M315 1000h9.75v155H315z" opacity=".4"/><path fill="#76a8f9" d="m315 1000 10-10h65l-10 10z"/><path fill="#295bac" d="m380 1000 10-10v155l-10 10z"/><text x="352.5" y="982" fill="#374151" font-size="13" font-weight="400" text-anchor="middle">52.67</text><text x="347.5" y="1177" fill="#4b5563" font-size="13" font-weight="500" text-anchor="middle">fsst</text></svg>