<svg xmlns="http://www.w3.org/2000/svg" width="700" height="1230" viewBox="0 0 700 1230"><path fill="#fff" d="M0 0h700v1230H0z"/><text x="350" y="80" fill="#222" font-size="46" font-weight="bold" text-anchor="middle">Pgm-Index Benchmark</text><text x="350" y="116.8" fill="#666" font-size="22" text-anchor="middle">Throughput and Memory comparison with same epsilon value (e=64)</text><text x="350" y="176" fill="#333" font-size="24" font-weight="bold" text-anchor="middle">1,000,000 Elements</text><path stroke="#e0e0e0" d="M90 406h570"/><text x="80" y="412" fill="#666" font-size="16" text-anchor="end">0.00</text><path stroke="#e0e0e0" d="M90 366h570"/><text x="80" y="372" fill="#666" font-size="16" text-anchor="end">11.17</text><path stroke="#e0e0e0" d="M90 326h570"/><text x="80" y="332" fill="#666" font-size="16" text-anchor="end">22.33</text><path stroke="#e0e0e0" d="M90 286h570"/><text x="80" y="292" fill="#666" font-size="16" text-anchor="end">33.50</text><path stroke="#e0e0e0" d="M90 246h570"/><text x="80" y="252" fill="#666" font-size="16" text-anchor="end">44.66</text><path stroke="#e0e0e0" d="M90 206h570"/><text x="80" y="212" fill="#666" font-size="16" text-anchor="end">55.83</text><path stroke="#888" d="M90 406h570"/><text x="20" y="306" fill="#333" font-size="16" font-weight="bold" text-anchor="middle" transform="rotate(-90 20 306)">Throughput (M/s)</text><path fill="#10b981" d="M135 206h60v200h-60z"/><text x="165" y="198" fill="#333" font-size="12" text-anchor="middle">55.83</text><text x="165" y="426" fill="#333" font-size="14" text-anchor="end" transform="rotate(-45 165 426)">jdb_pgm</text><text x="165" y="446" fill="#666" font-size="12" text-anchor="end" transform="rotate(-45 165 446)">e=64</text><path fill="#f97316" d="M240 251.2944348859841h60v154.7055651140159h-60z"/><text x="270" y="243.2944348859841" fill="#333" font-size="12" text-anchor="middle">43.18</text><text x="270" y="426" fill="#333" font-size="14" text-anchor="end" transform="rotate(-45 270 426)">pgm_index</text><text x="270" y="446" fill="#666" font-size="12" text-anchor="end" transform="rotate(-45 270 446)">e=64</text><path fill="#ef4444" d="M345 316.42241655290456h60v89.57758344709545h-60z"/><text x="375" y="308.42241655290456" fill="#333" font-size="12" text-anchor="middle">25.00</text><text x="375" y="426" fill="#333" font-size="14" text-anchor="end" transform="rotate(-45 375 426)">HashMap</text><path fill="#3b82f6" d="M450 318.3778096591707h60v87.62219034082933h-60z"/><text x="480" y="310.3778096591707" fill="#333" font-size="12" text-anchor="middle">24.46</text><text x="480" y="426" fill="#333" font-size="14" text-anchor="end" transform="rotate(-45 480 426)">Binary Search</text><path fill="#f59e0b" d="M555 363.45796078721463h60v42.54203921278537h-60z"/><text x="585" y="355.45796078721463" fill="#333" font-size="12" text-anchor="middle">11.87</text><text x="585" y="426" fill="#333" font-size="14" text-anchor="end" transform="rotate(-45 585 426)">BTreeMap</text><text x="350" y="546" fill="#333" font-size="20" font-weight="bold" text-anchor="middle">Memory Usage Comparison</text><path stroke="#e0e0e0" d="M90 766h570"/><text x="80" y="772" fill="#666" font-size="16" text-anchor="end">0.00</text><path stroke="#e0e0e0" d="M90 726h570"/><text x="80" y="732" fill="#666" font-size="16" text-anchor="end">8.00</text><path stroke="#e0e0e0" d="M90 686h570"/><text x="80" y="692" fill="#666" font-size="16" text-anchor="end">16.00</text><path stroke="#e0e0e0" d="M90 646h570"/><text x="80" y="652" fill="#666" font-size="16" text-anchor="end">24.00</text><path stroke="#e0e0e0" d="M90 606h570"/><text x="80" y="612" fill="#666" font-size="16" text-anchor="end">32.00</text><path stroke="#e0e0e0" d="M90 566h570"/><text x="80" y="572" fill="#666" font-size="16" text-anchor="end">40.00</text><path stroke="#888" d="M90 766h570"/><text x="20" y="666" fill="#333" font-size="16" font-weight="bold" text-anchor="middle" transform="rotate(-90 20 666)">Memory (MB)</text><path fill="#10b981" d="M135 763.5h60v2.5h-60z"/><text x="165" y="755.5" fill="#333" font-size="12" text-anchor="middle">0.50</text><text x="165" y="786" fill="#333" font-size="14" text-anchor="end" transform="rotate(-45 165 786)">jdb_pgm</text><text x="165" y="806" fill="#666" font-size="12" text-anchor="end" transform="rotate(-45 165 806)">e=64</text><path fill="#f97316" d="M240 724.125h60v41.875h-60z"/><text x="270" y="716.125" fill="#333" font-size="12" text-anchor="middle">8.38</text><text x="270" y="786" fill="#333" font-size="14" text-anchor="end" transform="rotate(-45 270 786)">pgm_index</text><text x="270" y="806" fill="#666" font-size="12" text-anchor="end" transform="rotate(-45 270 806)">e=64</text><path fill="#ef4444" d="M345 566h60v200h-60z"/><text x="375" y="558" fill="#333" font-size="12" text-anchor="middle">40.00</text><text x="375" y="786" fill="#333" font-size="14" text-anchor="end" transform="rotate(-45 375 786)">HashMap</text><text x="480" y="758" fill="#333" font-size="12" text-anchor="middle">0.00</text><text x="480" y="786" fill="#333" font-size="14" text-anchor="end" transform="rotate(-45 480 786)">Binary Search</text><path fill="#f59e0b" d="M555 681.8552551269531h60v84.14474487304688h-60z"/><text x="585" y="673.8552551269531" fill="#333" font-size="12" text-anchor="middle">16.83</text><text x="585" y="786" fill="#333" font-size="14" text-anchor="end" transform="rotate(-45 585 786)">BTreeMap</text><text x="350" y="906" fill="#333" font-size="20" font-weight="bold" text-anchor="middle">Prediction Accuracy Comparison</text><path stroke="#e0e0e0" d="M90 1126h570"/><text x="80" y="1132" fill="#666" font-size="16" text-anchor="end">0.00</text><path stroke="#e0e0e0" d="M90 1086h570"/><text x="80" y="1092" fill="#666" font-size="16" text-anchor="end">61.29</text><path stroke="#e0e0e0" d="M90 1046h570"/><text x="80" y="1052" fill="#666" font-size="16" text-anchor="end">122.59</text><path stroke="#e0e0e0" d="M90 1006h570"/><text x="80" y="1012" fill="#666" font-size="16" text-anchor="end">183.88</text><path stroke="#e0e0e0" d="M90 966h570"/><text x="80" y="972" fill="#666" font-size="16" text-anchor="end">245.17</text><path stroke="#e0e0e0" d="M90 926h570"/><text x="80" y="932" fill="#666" font-size="16" text-anchor="end">306.47</text><path stroke="#888" d="M90 1126h570"/><text x="20" y="1026" fill="#333" font-size="16" font-weight="bold" text-anchor="middle" transform="rotate(-90 20 1026)">Avg Error</text><path fill="#94a3b8" d="M195 1084.2337618057313h60v41.766238194268645h-60z"/><text x="225" y="1076.2337618057313" fill="#333" font-size="12" text-anchor="middle">64.00</text><text x="225" y="1146" fill="#333" font-size="12" text-anchor="end" transform="rotate(-45 225 1146)">Epsilon (e=64)</text><path fill="#10b981" d="M315 1111.2575255279196h60v14.742474472080394h-60z"/><text x="345" y="1103.2575255279196" fill="#333" font-size="12" text-anchor="middle">22.59</text><text x="345" y="1146" fill="#333" font-size="12" text-anchor="end" transform="rotate(-45 345 1146)">jdb_pgm</text><path fill="#f97316" d="M435 959.3333333333333h60v166.66666666666669h-60z"/><text x="465" y="951.3333333333333" fill="#333" font-size="12" text-anchor="middle">255.39</text><text x="465" y="1146" fill="#333" font-size="12" text-anchor="end" transform="rotate(-45 465 1146)">pgm_index</text><text x="350" y="1206" fill="#666" font-size="14" text-anchor="middle">Precision (e): Lower values provide more accurate predictions but larger index size</text><path fill="#10b981" d="M90 1236h20v20h-20z"/><text x="118" y="1254" fill="#333" font-size="18">jdb_pgm</text><path fill="#f97316" d="M280 1236h20v20h-20z"/><text x="308" y="1254" fill="#333" font-size="18">pgm_index</text><path fill="#ef4444" d="M470 1236h20v20h-20z"/><text x="498" y="1254" fill="#333" font-size="18">HashMap</text><path fill="#3b82f6" d="M90 1268h20v20h-20z"/><text x="118" y="1286" fill="#333" font-size="18">Binary Search</text><path fill="#f59e0b" d="M280 1268h20v20h-20z"/><text x="308" y="1286" fill="#333" font-size="18">BTreeMap</text></svg>