<svg width="1000" height="1400" xmlns="http://www.w3.org/2000/svg"><rect width="1000" height="1400" fill="white"/><text x="500" y="30" text-anchor="middle" font-size="20" font-weight="bold">Benchmark Results</text><g transform="translate(40, 90)"><text x="460" y="0" text-anchor="middle" font-size="16" font-weight="bold">Query Throughput</text><line x1="0" y1="30" x2="0" y2="250" stroke="#333" stroke-width="2"/><line x1="0" y1="250" x2="920" y2="250" stroke="#333" stroke-width="2"/><text x="-5" y="25" text-anchor="end" font-size="12">query</text><text x="166.66666666666666" y="270" text-anchor="middle" font-size="12" font-weight="bold">Bf8</text><text x="460" y="270" text-anchor="middle" font-size="12" font-weight="bold">Bf16</text><text x="753.3333333333333" y="270" text-anchor="middle" font-size="12" font-weight="bold">Bf32</text><rect x="820" y="40" width="15" height="15" fill="undefined" rx="2"/><text x="840" y="52" font-size="11" font-weight="bold">jdb_pef</text><rect x="820" y="60" width="15" height="15" fill="undefined" rx="2"/><text x="840" y="72" font-size="11" font-weight="bold">sucds</text><path d="M 827.5 90 L 829.5 94 L 833.5 94 L 830.5 96.5 L 831.5 100.5 L 827.5 98 L 823.5 100.5 L 824.5 96.5 L 821.5 94 L 825.5 94 Z" fill="#EF4444" stroke="#DC2626" stroke-width="0.5"/><text x="840" y="98" font-size="10">undefined</text></g><g transform="translate(40, 430)"><text x="460" y="0" text-anchor="middle" font-size="16" font-weight="bold">Build Throughput</text><line x1="0" y1="30" x2="0" y2="250" stroke="#333" stroke-width="2"/><line x1="0" y1="250" x2="920" y2="250" stroke="#333" stroke-width="2"/><text x="-5" y="25" text-anchor="end" font-size="12">Mops/s</text><text x="166.66666666666666" y="270" text-anchor="middle" font-size="12" font-weight="bold">Bf8</text><text x="460" y="270" text-anchor="middle" font-size="12" font-weight="bold">Bf16</text><text x="753.3333333333333" y="270" text-anchor="middle" font-size="12" font-weight="bold">Bf32</text><rect x="820" y="40" width="15" height="15" fill="undefined" rx="2"/><text x="840" y="52" font-size="11" font-weight="bold">jdb_pef</text><rect x="820" y="60" width="15" height="15" fill="undefined" rx="2"/><text x="840" y="72" font-size="11" font-weight="bold">sucds</text><path d="M 827.5 90 L 829.5 94 L 833.5 94 L 830.5 96.5 L 831.5 100.5 L 827.5 98 L 823.5 100.5 L 824.5 96.5 L 821.5 94 L 825.5 94 Z" fill="#EF4444" stroke="#DC2626" stroke-width="0.5"/><text x="840" y="98" font-size="10">undefined</text></g><g transform="translate(40, 770)"><text x="460" y="0" text-anchor="middle" font-size="16" font-weight="bold">Memory Usage</text><line x1="0" y1="30" x2="0" y2="250" stroke="#333" stroke-width="2"/><line x1="0" y1="250" x2="920" y2="250" stroke="#333" stroke-width="2"/><text x="-5" y="25" text-anchor="end" font-size="12">KB</text><text x="166.66666666666666" y="270" text-anchor="middle" font-size="12" font-weight="bold">Bf8</text><text x="460" y="270" text-anchor="middle" font-size="12" font-weight="bold">Bf16</text><text x="753.3333333333333" y="270" text-anchor="middle" font-size="12" font-weight="bold">Bf32</text><rect x="820" y="40" width="15" height="15" fill="undefined" rx="2"/><text x="840" y="52" font-size="11" font-weight="bold">jdb_pef</text><rect x="820" y="60" width="15" height="15" fill="undefined" rx="2"/><text x="840" y="72" font-size="11" font-weight="bold">sucds</text><path d="M 827.5 90 L 829.5 94 L 833.5 94 L 830.5 96.5 L 831.5 100.5 L 827.5 98 L 823.5 100.5 L 824.5 96.5 L 821.5 94 L 825.5 94 Z" fill="#EF4444" stroke="#DC2626" stroke-width="0.5"/><text x="840" y="98" font-size="10">undefined</text></g><g transform="translate(40, 1110)"><text x="460" y="0" text-anchor="middle" font-size="16" font-weight="bold">False Positive Rate</text><line x1="0" y1="30" x2="0" y2="250" stroke="#333" stroke-width="2"/><line x1="0" y1="250" x2="920" y2="250" stroke="#333" stroke-width="2"/><text x="-5" y="25" text-anchor="end" font-size="12">%</text><text x="166.66666666666666" y="270" text-anchor="middle" font-size="12" font-weight="bold">Bf8</text><text x="460" y="270" text-anchor="middle" font-size="12" font-weight="bold">Bf16</text><text x="753.3333333333333" y="270" text-anchor="middle" font-size="12" font-weight="bold">Bf32</text><rect x="820" y="40" width="15" height="15" fill="undefined" rx="2"/><text x="840" y="52" font-size="11" font-weight="bold">jdb_pef</text><rect x="820" y="60" width="15" height="15" fill="undefined" rx="2"/><text x="840" y="72" font-size="11" font-weight="bold">sucds</text><path d="M 827.5 90 L 829.5 94 L 833.5 94 L 830.5 96.5 L 831.5 100.5 L 827.5 98 L 823.5 100.5 L 824.5 96.5 L 821.5 94 L 825.5 94 Z" fill="#EF4444" stroke="#DC2626" stroke-width="0.5"/><text x="840" y="98" font-size="10">undefined</text></g></svg>