<svg xmlns="http://www.w3.org/2000/svg" width="700" height="1704" viewBox="0 0 700 1704"><path fill="#fff" d="M0 0h700v1704H0z"/><text x="350" y="80" fill="#222" font-size="46" font-weight="bold" text-anchor="middle">Rust LRU Benchmark</text><text x="350" y="116.8" fill="#666" font-size="22" text-anchor="middle">Real-world Data Distribution, Fixed Memory Budget</text><text x="350" y="176" fill="#333" font-size="24" font-weight="bold" text-anchor="middle">Equivalent OPS (M/s)</text><path stroke="#e0e0e0" d="M90 356h570"/><text x="80" y="362" fill="#666" font-size="16" text-anchor="end">0.00</text><path stroke="#e0e0e0" d="M90 318.5h570"/><text x="80" y="324.5" fill="#666" font-size="16" text-anchor="end">0.35</text><path stroke="#e0e0e0" d="M90 281h570"/><text x="80" y="287" fill="#666" font-size="16" text-anchor="end">0.70</text><path stroke="#e0e0e0" d="M90 243.5h570"/><text x="80" y="249.5" fill="#666" font-size="16" text-anchor="end">1.05</text><path stroke="#e0e0e0" d="M90 206h570"/><text x="80" y="212" fill="#666" font-size="16" text-anchor="end">1.41</text><path stroke="#888" d="M90 356h570"/><path fill="#3b82f6" d="M108.75 206h60v150h-60z"/><text x="138.75" y="198" fill="#333" font-size="12" text-anchor="middle">1.41</text><text x="138.75" y="376" fill="#333" font-size="14" text-anchor="end" transform="rotate(-45 138.75 376)">size_lru</text><path fill="#ec4899" d="M187.5 246.605h60V356h-60z"/><text x="217.5" y="238.605" fill="#333" font-size="12" text-anchor="middle">1.02</text><text x="217.5" y="376" fill="#333" font-size="14" text-anchor="end" transform="rotate(-45 217.5 376)">schnellru</text><path fill="#06b6d4" d="M266.25 247.54h60V356h-60z"/><text x="296.25" y="239.54" fill="#333" font-size="12" text-anchor="middle">1.02</text><text x="296.25" y="376" fill="#333" font-size="14" text-anchor="end" transform="rotate(-45 296.25 376)">hashlink</text><path fill="#8b5cf6" d="M345 247.972h60V356h-60z"/><text x="375" y="239.972" fill="#333" font-size="12" text-anchor="middle">1.01</text><text x="375" y="376" fill="#333" font-size="14" text-anchor="end" transform="rotate(-45 375 376)">lru</text><path fill="#ef4444" d="M423.75 248.542h60V356h-60z"/><text x="453.75" y="240.542" fill="#333" font-size="12" text-anchor="middle">1.01</text><text x="453.75" y="376" fill="#333" font-size="14" text-anchor="end" transform="rotate(-45 453.75 376)">clru</text><path fill="#10b981" d="M502.5 251.97h60V356h-60z"/><text x="532.5" y="243.97" fill="#333" font-size="12" text-anchor="middle">0.97</text><text x="532.5" y="376" fill="#333" font-size="14" text-anchor="end" transform="rotate(-45 532.5 376)">moka</text><path fill="#f59e0b" d="M581.25 258.347h60V356h-60z"/><text x="611.25" y="250.347" fill="#333" font-size="12" text-anchor="middle">0.91</text><text x="611.25" y="376" fill="#333" font-size="14" text-anchor="end" transform="rotate(-45 611.25 376)">mini-moka</text><text x="350" y="472" fill="#888" font-size="14" text-anchor="middle">Equivalent OPS = 1 / (avg_op_time + miss_rate × miss_latency)</text><text x="350" y="492" fill="#888" font-size="14" text-anchor="middle">miss_latency = 1.9µs (NVMe 4KB random read)</text><text x="350" y="580" fill="#333" font-size="24" font-weight="bold" text-anchor="middle">OPS (M/s)</text><path stroke="#e0e0e0" d="M90 760h570"/><text x="80" y="766" fill="#666" font-size="16" text-anchor="end">0.0</text><path stroke="#e0e0e0" d="M90 722.5h570"/><text x="80" y="728.5" fill="#666" font-size="16" text-anchor="end">1.5</text><path stroke="#e0e0e0" d="M90 685h570"/><text x="80" y="691" fill="#666" font-size="16" text-anchor="end">3.0</text><path stroke="#e0e0e0" d="M90 647.5h570"/><text x="80" y="653.5" fill="#666" font-size="16" text-anchor="end">4.5</text><path stroke="#e0e0e0" d="M90 610h570"/><text x="80" y="616" fill="#666" font-size="16" text-anchor="end">6.0</text><path stroke="#888" d="M90 760h570"/><path fill="#06b6d4" d="M108.75 610h60v150h-60z"/><text x="138.75" y="602" fill="#333" font-size="12" text-anchor="middle">6.0</text><text x="138.75" y="780" fill="#333" font-size="14" text-anchor="end" transform="rotate(-45 138.75 780)">hashlink</text><path fill="#3b82f6" d="M187.5 610.414h60V760h-60z"/><text x="217.5" y="602.414" fill="#333" font-size="12" text-anchor="middle">6.0</text><text x="217.5" y="780" fill="#333" font-size="14" text-anchor="end" transform="rotate(-45 217.5 780)">size_lru</text><path fill="#ec4899" d="M266.25 612.318h60V760h-60z"/><text x="296.25" y="604.318" fill="#333" font-size="12" text-anchor="middle">5.9</text><text x="296.25" y="780" fill="#333" font-size="14" text-anchor="end" transform="rotate(-45 296.25 780)">schnellru</text><path fill="#8b5cf6" d="M345 615.625h60V760h-60z"/><text x="375" y="607.625" fill="#333" font-size="12" text-anchor="middle">5.8</text><text x="375" y="780" fill="#333" font-size="14" text-anchor="end" transform="rotate(-45 375 780)">lru</text><path fill="#ef4444" d="M423.75 627.108h60V760h-60z"/><text x="453.75" y="619.108" fill="#333" font-size="12" text-anchor="middle">5.3</text><text x="453.75" y="780" fill="#333" font-size="14" text-anchor="end" transform="rotate(-45 453.75 780)">clru</text><path fill="#10b981" d="M502.5 705.984h60V760h-60z"/><text x="532.5" y="697.984" fill="#333" font-size="12" text-anchor="middle">2.2</text><text x="532.5" y="780" fill="#333" font-size="14" text-anchor="end" transform="rotate(-45 532.5 780)">moka</text><path fill="#f59e0b" d="M581.25 712.417h60V760h-60z"/><text x="611.25" y="704.417" fill="#333" font-size="12" text-anchor="middle">1.9</text><text x="611.25" y="780" fill="#333" font-size="14" text-anchor="end" transform="rotate(-45 611.25 780)">mini-moka</text><text x="350" y="940" fill="#333" font-size="24" font-weight="bold" text-anchor="middle">Hit Rate (%)</text><path stroke="#e0e0e0" d="M90 1120h570"/><text x="80" y="1126" fill="#666" font-size="16" text-anchor="end">0.0</text><path stroke="#e0e0e0" d="M90 1082.5h570"/><text x="80" y="1088.5" fill="#666" font-size="16" text-anchor="end">18.0</text><path stroke="#e0e0e0" d="M90 1045h570"/><text x="80" y="1051" fill="#666" font-size="16" text-anchor="end">35.9</text><path stroke="#e0e0e0" d="M90 1007.5h570"/><text x="80" y="1013.5" fill="#666" font-size="16" text-anchor="end">53.9</text><path stroke="#e0e0e0" d="M90 970h570"/><text x="80" y="976" fill="#666" font-size="16" text-anchor="end">71.8</text><path stroke="#888" d="M90 1120h570"/><path fill="#3b82f6" d="M108.75 970h60v150h-60z"/><text x="138.75" y="962" fill="#333" font-size="12" text-anchor="middle">71.8</text><text x="138.75" y="1140" fill="#333" font-size="14" text-anchor="end" transform="rotate(-45 138.75 1140)">size_lru</text><path fill="#10b981" d="M187.5 972.166h60V1120h-60z"/><text x="217.5" y="964.166" fill="#333" font-size="12" text-anchor="middle">70.8</text><text x="217.5" y="1140" fill="#333" font-size="14" text-anchor="end" transform="rotate(-45 217.5 1140)">moka</text><path fill="#f59e0b" d="M266.25 972.673h60V1120h-60z"/><text x="296.25" y="964.673" fill="#333" font-size="12" text-anchor="middle">70.5</text><text x="296.25" y="1140" fill="#333" font-size="14" text-anchor="end" transform="rotate(-45 296.25 1140)">mini-moka</text><path fill="#ef4444" d="M345 998.169h60V1120h-60z"/><text x="375" y="990.169" fill="#333" font-size="12" text-anchor="middle">58.3</text><text x="375" y="1140" fill="#333" font-size="14" text-anchor="end" transform="rotate(-45 375 1140)">clru</text><path fill="#ec4899" d="M423.75 998.295h60V1120h-60z"/><text x="453.75" y="990.295" fill="#333" font-size="12" text-anchor="middle">58.3</text><text x="453.75" y="1140" fill="#333" font-size="14" text-anchor="end" transform="rotate(-45 453.75 1140)">schnellru</text><path fill="#8b5cf6" d="M502.5 999.211h60V1120h-60z"/><text x="532.5" y="991.211" fill="#333" font-size="12" text-anchor="middle">57.8</text><text x="532.5" y="1140" fill="#333" font-size="14" text-anchor="end" transform="rotate(-45 532.5 1140)">lru</text><path fill="#06b6d4" d="M581.25 999.485h60V1120h-60z"/><text x="611.25" y="991.485" fill="#333" font-size="12" text-anchor="middle">57.7</text><text x="611.25" y="1140" fill="#333" font-size="14" text-anchor="end" transform="rotate(-45 611.25 1140)">hashlink</text><text x="350" y="1300" fill="#333" font-size="24" font-weight="bold" text-anchor="middle">Memory (KB)</text><path stroke="#e0e0e0" d="M90 1480h570"/><text x="80" y="1486" fill="#666" font-size="16" text-anchor="end">0</text><path stroke="#e0e0e0" d="M90 1442.5h570"/><text x="80" y="1448.5" fill="#666" font-size="16" text-anchor="end">17426</text><path stroke="#e0e0e0" d="M90 1405h570"/><text x="80" y="1411" fill="#666" font-size="16" text-anchor="end">34853</text><path stroke="#e0e0e0" d="M90 1367.5h570"/><text x="80" y="1373.5" fill="#666" font-size="16" text-anchor="end">52279</text><path stroke="#e0e0e0" d="M90 1330h570"/><text x="80" y="1336" fill="#666" font-size="16" text-anchor="end">69706</text><path stroke="#888" d="M90 1480h570"/><path fill="#06b6d4" d="M108.75 1342.716h60V1480h-60z"/><text x="138.75" y="1334.716" fill="#333" font-size="12" text-anchor="middle">63797</text><text x="138.75" y="1500" fill="#333" font-size="14" text-anchor="end" transform="rotate(-45 138.75 1500)">hashlink</text><path fill="#8b5cf6" d="M187.5 1339.61h60V1480h-60z"/><text x="217.5" y="1331.61" fill="#333" font-size="12" text-anchor="middle">65240</text><text x="217.5" y="1500" fill="#333" font-size="14" text-anchor="end" transform="rotate(-45 217.5 1500)">lru</text><path fill="#10b981" d="M266.25 1339.26h60V1480h-60z"/><text x="296.25" y="1331.26" fill="#333" font-size="12" text-anchor="middle">65402</text><text x="296.25" y="1500" fill="#333" font-size="14" text-anchor="end" transform="rotate(-45 296.25 1500)">moka</text><path fill="#f59e0b" d="M345 1336.205h60V1480h-60z"/><text x="375" y="1328.205" fill="#333" font-size="12" text-anchor="middle">66823</text><text x="375" y="1500" fill="#333" font-size="14" text-anchor="end" transform="rotate(-45 375 1500)">mini-moka</text><path fill="#3b82f6" d="M423.75 1334.169h60V1480h-60z"/><text x="453.75" y="1326.169" fill="#333" font-size="12" text-anchor="middle">67769</text><text x="453.75" y="1500" fill="#333" font-size="14" text-anchor="end" transform="rotate(-45 453.75 1500)">size_lru</text><path fill="#ec4899" d="M502.5 1333.051h60V1480h-60z"/><text x="532.5" y="1325.051" fill="#333" font-size="12" text-anchor="middle">68288</text><text x="532.5" y="1500" fill="#333" font-size="14" text-anchor="end" transform="rotate(-45 532.5 1500)">schnellru</text><path fill="#ef4444" d="M581.25 1330h60v150h-60z"/><text x="611.25" y="1322" fill="#333" font-size="12" text-anchor="middle">69706</text><text x="611.25" y="1500" fill="#333" font-size="14" text-anchor="end" transform="rotate(-45 611.25 1500)">clru</text><path fill="#3b82f6" d="M90 1620h20v20H90z"/><text x="118" y="1638" fill="#333" font-size="18">size_lru</text><path fill="#10b981" d="M232.5 1620h20v20h-20z"/><text x="260.5" y="1638" fill="#333" font-size="18">moka</text><path fill="#f59e0b" d="M375 1620h20v20h-20z"/><text x="403" y="1638" fill="#333" font-size="18">mini-moka</text><path fill="#ef4444" d="M517.5 1620h20v20h-20z"/><text x="545.5" y="1638" fill="#333" font-size="18">clru</text><path fill="#8b5cf6" d="M90 1652h20v20H90z"/><text x="118" y="1670" fill="#333" font-size="18">lru</text><path fill="#06b6d4" d="M232.5 1652h20v20h-20z"/><text x="260.5" y="1670" fill="#333" font-size="18">hashlink</text><path fill="#ec4899" d="M375 1652h20v20h-20z"/><text x="403" y="1670" fill="#333" font-size="18">schnellru</text></svg>