<svg xmlns="http://www.w3.org/2000/svg" width="700" height="1716" viewBox="0 0 700 1716"><path fill="#fff" d="M0 0h700v1716H0z"/><text x="350" y="80" fill="#222" font-size="46" font-weight="bold" text-anchor="middle">Rust LRU 评测</text><text x="350" y="116.8" fill="#666" font-size="22" text-anchor="middle">模拟真实世界数据分布，固定内存大小</text><text x="350" y="176" fill="#333" font-size="24" font-weight="bold" text-anchor="middle">等价 OPS (百万/秒)</text><path stroke="0e0e0" d="M90 356h570"/><text x="80" y="362" fill="#666" font-size="16" text-anchor="end">0.00</text><path stroke="0e0e0" d="M90 318.5h570"/><text x="80" y="324.5" fill="#666" font-size="16" text-anchor="end">0.05</text><path stroke="0e0e0" d="M90 281h570"/><text x="80" y="287" fill="#666" font-size="16" text-anchor="end">0.11</text><path stroke="0e0e0" d="M90 243.5h570"/><text x="80" y="249.5" fill="#666" font-size="16" text-anchor="end">0.16</text><path stroke="0e0e0" d="M90 206h570"/><text x="80" y="212" fill="#666" font-size="16" text-anchor="end">0.21</text><path stroke="#888" d="M90 356h570"/><path fill="#f97316" d="M108.75 206h60v150h-60z"/><text x="138.75" y="198" fill="#333" font-size="12" text-anchor="middle">0.21</text><text x="138.75" y="376" fill="#333" font-size="14" text-anchor="end" transform="rotate(-45 138.75 376)">size_lru</text><path fill="#06b6d4" d="M187.5 234.26h60V356h-60z"/><text x="217.5" y="226.26" fill="#333" font-size="12" text-anchor="middle">0.17</text><text x="217.5" y="376" fill="#333" font-size="14" text-anchor="end" transform="rotate(-45 217.5 376)">moka</text><path fill="#8b5cf6" d="M266.25 236.536h60V356h-60z"/><text x="296.25" y="228.536" fill="#333" font-size="12" text-anchor="middle">0.17</text><text x="296.25" y="376" fill="#333" font-size="14" text-anchor="end" transform="rotate(-45 296.25 376)">mini-moka</text><path fill="#ec4899" d="M345 265.416h60V356h-60z"/><text x="375" y="257.416" fill="#333" font-size="12" text-anchor="middle">0.13</text><text x="375" y="376" fill="#333" font-size="14" text-anchor="end" transform="rotate(-45 375 376)">hashlink</text><path fill="#3b82f6" d="M423.75 265.47h60V356h-60z"/><text x="453.75" y="257.47" fill="#333" font-size="12" text-anchor="middle">0.13</text><text x="453.75" y="376" fill="#333" font-size="14" text-anchor="end" transform="rotate(-45 453.75 376)">lru</text><path fill="#64748b" d="M502.5 265.572h60V356h-60z"/><text x="532.5" y="257.572" fill="#333" font-size="12" text-anchor="middle">0.13</text><text x="532.5" y="376" fill="#333" font-size="14" text-anchor="end" transform="rotate(-45 532.5 376)">schnellru</text><path fill="#10b981" d="M581.25 265.742h60V356h-60z"/><text x="611.25" y="257.742" fill="#333" font-size="12" text-anchor="middle">0.13</text><text x="611.25" y="376" fill="#333" font-size="14" text-anchor="end" transform="rotate(-45 611.25 376)">clru</text><text x="350" y="472" fill="#888" font-size="14" text-anchor="middle">等价 OPS = 1 / (平均操作时间 + 未命中率 × 未命中延迟)</text><text x="350" y="492" fill="#888" font-size="14" text-anchor="middle">未命中延迟 = 18.0µs</text><text x="350" y="512" fill="#888" font-size="14" text-anchor="middle">DapuStor X5900 PCIe 5.0 NVMe (18µs)</text><text x="350" y="592" fill="#333" font-size="24" font-weight="bold" text-anchor="middle">OPS (百万/秒)</text><path stroke="0e0e0" d="M90 772h570"/><text x="80" y="778" fill="#666" font-size="16" text-anchor="end">0.0</text><path stroke="0e0e0" d="M90 734.5h570"/><text x="80" y="740.5" fill="#666" font-size="16" text-anchor="end">1.6</text><path stroke="0e0e0" d="M90 697h570"/><text x="80" y="703" fill="#666" font-size="16" text-anchor="end">3.2</text><path stroke="0e0e0" d="M90 659.5h570"/><text x="80" y="665.5" fill="#666" font-size="16" text-anchor="end">4.8</text><path stroke="0e0e0" d="M90 622h570"/><text x="80" y="628" fill="#666" font-size="16" text-anchor="end">6.4</text><path stroke="#888" d="M90 772h570"/><path fill="#ec4899" d="M108.75 622h60v150h-60z"/><text x="138.75" y="614" fill="#333" font-size="12" text-anchor="middle">6.4</text><text x="138.75" y="792" fill="#333" font-size="14" text-anchor="end" transform="rotate(-45 138.75 792)">hashlink</text><path fill="#64748b" d="M187.5 625.681h60V772h-60z"/><text x="217.5" y="617.681" fill="#333" font-size="12" text-anchor="middle">6.3</text><text x="217.5" y="792" fill="#333" font-size="14" text-anchor="end" transform="rotate(-45 217.5 792)">schnellru</text><path fill="#3b82f6" d="M266.25 627.188h60V772h-60z"/><text x="296.25" y="619.188" fill="#333" font-size="12" text-anchor="middle">6.2</text><text x="296.25" y="792" fill="#333" font-size="14" text-anchor="end" transform="rotate(-45 296.25 792)">lru</text><path fill="#f97316" d="M345 631.066h60V772h-60z"/><text x="375" y="623.066" fill="#333" font-size="12" text-anchor="middle">6.1</text><text x="375" y="792" fill="#333" font-size="14" text-anchor="end" transform="rotate(-45 375 792)">size_lru</text><path fill="#10b981" d="M423.75 650.921h60V772h-60z"/><text x="453.75" y="642.921" fill="#333" font-size="12" text-anchor="middle">5.2</text><text x="453.75" y="792" fill="#333" font-size="14" text-anchor="end" transform="rotate(-45 453.75 792)">clru</text><path fill="#06b6d4" d="M502.5 725.035h60V772h-60z"/><text x="532.5" y="717.035" fill="#333" font-size="12" text-anchor="middle">2.0</text><text x="532.5" y="792" fill="#333" font-size="14" text-anchor="end" transform="rotate(-45 532.5 792)">moka</text><path fill="#8b5cf6" d="M581.25 729.824h60V772h-60z"/><text x="611.25" y="721.824" fill="#333" font-size="12" text-anchor="middle">1.8</text><text x="611.25" y="792" fill="#333" font-size="14" text-anchor="end" transform="rotate(-45 611.25 792)">mini-moka</text><text x="350" y="952" fill="#333" font-size="24" font-weight="bold" text-anchor="middle">命中率 (%)</text><path stroke="0e0e0" d="M90 1132h570"/><text x="80" y="1138" fill="#666" font-size="16" text-anchor="end">0.0</text><path stroke="0e0e0" d="M90 1094.5h570"/><text x="80" y="1100.5" fill="#666" font-size="16" text-anchor="end">18.7</text><path stroke="0e0e0" d="M90 1057h570"/><text x="80" y="1063" fill="#666" font-size="16" text-anchor="end">37.5</text><path stroke="0e0e0" d="M90 1019.5h570"/><text x="80" y="1025.5" fill="#666" font-size="16" text-anchor="end">56.2</text><path stroke="0e0e0" d="M90 982h570"/><text x="80" y="988" fill="#666" font-size="16" text-anchor="end">74.9</text><path stroke="#888" d="M90 1132h570"/><path fill="#f97316" d="M108.75 982h60v150h-60z"/><text x="138.75" y="974" fill="#333" font-size="12" text-anchor="middle">74.9</text><text x="138.75" y="1152" fill="#333" font-size="14" text-anchor="end" transform="rotate(-45 138.75 1152)">size_lru</text><path fill="#06b6d4" d="M187.5 990.397h60V1132h-60z"/><text x="217.5" y="982.397" fill="#333" font-size="12" text-anchor="middle">70.7</text><text x="217.5" y="1152" fill="#333" font-size="14" text-anchor="end" transform="rotate(-45 217.5 1152)">moka</text><path fill="#8b5cf6" d="M266.25 990.993h60V1132h-60z"/><text x="296.25" y="982.993" fill="#333" font-size="12" text-anchor="middle">70.4</text><text x="296.25" y="1152" fill="#333" font-size="14" text-anchor="end" transform="rotate(-45 296.25 1152)">mini-moka</text><path fill="#10b981" d="M345 1016.12h60V1132h-60z"/><text x="375" y="1008.12" fill="#333" font-size="12" text-anchor="middle">57.9</text><text x="375" y="1152" fill="#333" font-size="14" text-anchor="end" transform="rotate(-45 375 1152)">clru</text><path fill="#3b82f6" d="M423.75 1016.21h60V1132h-60z"/><text x="453.75" y="1008.21" fill="#333" font-size="12" text-anchor="middle">57.8</text><text x="453.75" y="1152" fill="#333" font-size="14" text-anchor="end" transform="rotate(-45 453.75 1152)">lru</text><path fill="#ec4899" d="M502.5 1016.221h60V1132h-60z"/><text x="532.5" y="1008.221" fill="#333" font-size="12" text-anchor="middle">57.8</text><text x="532.5" y="1152" fill="#333" font-size="14" text-anchor="end" transform="rotate(-45 532.5 1152)">hashlink</text><path fill="#64748b" d="M581.25 1016.325h60V1132h-60z"/><text x="611.25" y="1008.325" fill="#333" font-size="12" text-anchor="middle">57.8</text><text x="611.25" y="1152" fill="#333" font-size="14" text-anchor="end" transform="rotate(-45 611.25 1152)">schnellru</text><text x="350" y="1312" fill="#333" font-size="24" font-weight="bold" text-anchor="middle">内存 (KB)</text><path stroke="0e0e0" d="M90 1492h570"/><text x="80" y="1498" fill="#666" font-size="16" text-anchor="end">0</text><path stroke="0e0e0" d="M90 1454.5h570"/><text x="80" y="1460.5" fill="#666" font-size="16" text-anchor="end">16514</text><path stroke="0e0e0" d="M90 1417h570"/><text x="80" y="1423" fill="#666" font-size="16" text-anchor="end">33029</text><path stroke="0e0e0" d="M90 1379.5h570"/><text x="80" y="1385.5" fill="#666" font-size="16" text-anchor="end">49543</text><path stroke="0e0e0" d="M90 1342h570"/><text x="80" y="1348" fill="#666" font-size="16" text-anchor="end">66058</text><path stroke="#888" d="M90 1492h570"/><path fill="#64748b" d="M108.75 1343.257h60V1492h-60z"/><text x="138.75" y="1335.257" fill="#333" font-size="12" text-anchor="middle">65504</text><text x="138.75" y="1512" fill="#333" font-size="14" text-anchor="end" transform="rotate(-45 138.75 1512)">schnellru</text><path fill="#ec4899" d="M187.5 1343.188h60V1492h-60z"/><text x="217.5" y="1335.188" fill="#333" font-size="12" text-anchor="middle">65535</text><text x="217.5" y="1512" fill="#333" font-size="14" text-anchor="end" transform="rotate(-45 217.5 1512)">hashlink</text><path fill="#10b981" d="M266.25 1342.912h60V1492h-60z"/><text x="296.25" y="1334.912" fill="#333" font-size="12" text-anchor="middle">65656</text><text x="296.25" y="1512" fill="#333" font-size="14" text-anchor="end" transform="rotate(-45 296.25 1512)">clru</text><path fill="#06b6d4" d="M345 1342.893h60V1492h-60z"/><text x="375" y="1334.893" fill="#333" font-size="12" text-anchor="middle">65664</text><text x="375" y="1512" fill="#333" font-size="14" text-anchor="end" transform="rotate(-45 375 1512)">moka</text><path fill="#f97316" d="M423.75 1342.866h60V1492h-60z"/><text x="453.75" y="1334.866" fill="#333" font-size="12" text-anchor="middle">65676</text><text x="453.75" y="1512" fill="#333" font-size="14" text-anchor="end" transform="rotate(-45 453.75 1512)">size_lru</text><path fill="#3b82f6" d="M502.5 1342.796h60V1492h-60z"/><text x="532.5" y="1334.796" fill="#333" font-size="12" text-anchor="middle">65707</text><text x="532.5" y="1512" fill="#333" font-size="14" text-anchor="end" transform="rotate(-45 532.5 1512)">lru</text><path fill="#8b5cf6" d="M581.25 1342h60v150h-60z"/><text x="611.25" y="1334" fill="#333" font-size="12" text-anchor="middle">66058</text><text x="611.25" y="1512" fill="#333" font-size="14" text-anchor="end" transform="rotate(-45 611.25 1512)">mini-moka</text><path fill="#f97316" d="M90 1632h20v20H90z"/><text x="118" y="1650" fill="#333" font-size="18">size_lru</text><path fill="#06b6d4" d="M232.5 1632h20v20h-20z"/><text x="260.5" y="1650" fill="#333" font-size="18">moka</text><path fill="#8b5cf6" d="M375 1632h20v20h-20z"/><text x="403" y="1650" fill="#333" font-size="18">mini-moka</text><path fill="#10b981" d="M517.5 1632h20v20h-20z"/><text x="545.5" y="1650" fill="#333" font-size="18">clru</text><path fill="#3b82f6" d="M90 1664h20v20H90z"/><text x="118" y="1682" fill="#333" font-size="18">lru</text><path fill="#ec4899" d="M232.5 1664h20v20h-20z"/><text x="260.5" y="1682" fill="#333" font-size="18">hashlink</text><path fill="#64748b" d="M375 1664h20v20h-20z"/><text x="403" y="1682" fill="#333" font-size="18">schnellru</text></svg>