<svg xmlns="http://www.w3.org/2000/svg" viewBox="0 0 580 500"><path fill="#fff" d="M0 0h580v500H0z"/><text x="290" y="28" fill="#333" font-size="14" font-weight="bold" text-anchor="middle">Performance (M ops/s)</text><path stroke="#e0e0e0" d="M55 190h500"/><text x="47" y="194" fill="#666" font-size="10" text-anchor="end">0</text><path stroke="#e0e0e0" d="M55 161h500"/><text x="47" y="165" fill="#666" font-size="10" text-anchor="end">24</text><path stroke="#e0e0e0" d="M55 132h500"/><text x="47" y="136" fill="#666" font-size="10" text-anchor="end">48</text><path stroke="#e0e0e0" d="M55 103h500"/><text x="47" y="107" fill="#666" font-size="10" text-anchor="end">72</text><path stroke="#e0e0e0" d="M55 74h500"/><text x="47" y="78" fill="#666" font-size="10" text-anchor="end">96</text><path stroke="#e0e0e0" d="M55 45h500"/><text x="47" y="49" fill="#666" font-size="10" text-anchor="end">120</text><path stroke="#888" d="M55 190h500M55 45v145"/><text x="138.333" y="210" fill="#333" font-size="11" text-anchor="middle">Contains</text><path fill="#213d93" d="m113.333 68.148 7.2-12V178l-7.2 12Z"/><path fill="#93afff" d="m78.333 68.148 7.2-12h35l-7.2 12Z"/><rect width="35" height="121.852" x="78.333" y="68.148" fill="#5470c6" rx="1"/><text x="95.833" y="53.148" fill="#333" font-size="9" text-anchor="middle">100.8</text><path fill="#5e9942" d="m153.333 168.15 7.2-12V178l-7.2 12Z"/><path fill="#d0ffb4" d="m118.333 168.15 7.2-12h35l-7.2 12Z"/><rect width="35" height="21.85" x="118.333" y="168.15" fill="#91cc75" rx="1"/><text x="135.833" y="153.15" fill="#333" font-size="9" text-anchor="middle">18.1</text><path fill="#c79525" d="m193.333 163.4 7.2-12V178l-7.2 12Z"/><path fill="#ffff97" d="m158.333 163.4 7.2-12h35l-7.2 12Z"/><rect width="35" height="26.6" x="158.333" y="163.4" fill="#fac858" rx="1"/><text x="175.833" y="148.4" fill="#333" font-size="9" text-anchor="middle">22.0</text><text x="305" y="210" fill="#333" font-size="11" text-anchor="middle">Add</text><path fill="#213d93" d="m280 148.816 7.2-12V178l-7.2 12Z"/><path fill="#93afff" d="m245 148.816 7.2-12h35l-7.2 12Z"/><rect width="35" height="41.184" x="245" y="148.816" fill="#5470c6" rx="1"/><text x="262.5" y="133.816" fill="#333" font-size="9" text-anchor="middle">34.1</text><path fill="#5e9942" d="m320 176.367 7.2-12V178l-7.2 12Z"/><path fill="#d0ffb4" d="m285 176.367 7.2-12h35l-7.2 12Z"/><rect width="35" height="13.633" x="285" y="176.367" fill="#91cc75" rx="1"/><text x="302.5" y="161.367" fill="#333" font-size="9" text-anchor="middle">11.3</text><path fill="#c79525" d="m360 164.347 7.2-12V178l-7.2 12Z"/><path fill="#ffff97" d="m325 164.347 7.2-12h35l-7.2 12Z"/><rect width="35" height="25.653" x="325" y="164.347" fill="#fac858" rx="1"/><text x="342.5" y="149.347" fill="#333" font-size="9" text-anchor="middle">21.2</text><text x="471.667" y="210" fill="#333" font-size="11" text-anchor="middle">Remove</text><path fill="#213d93" d="m446.667 164.844 7.2-12V178l-7.2 12Z"/><path fill="#93afff" d="m411.667 164.844 7.2-12h35l-7.2 12Z"/><rect width="35" height="25.156" x="411.667" y="164.844" fill="#5470c6" rx="1"/><text x="429.167" y="149.844" fill="#333" font-size="9" text-anchor="middle">20.8</text><path fill="#5e9942" d="m486.667 167.942 7.2-12V178l-7.2 12Z"/><path fill="#d0ffb4" d="m451.667 167.942 7.2-12h35l-7.2 12Z"/><rect width="35" height="22.058" x="451.667" y="167.942" fill="#91cc75" rx="1"/><text x="469.167" y="152.942" fill="#333" font-size="9" text-anchor="middle">18.3</text><path fill="#c79525" d="m526.667 172.863 7.2-12V178l-7.2 12Z"/><path fill="#ffff97" d="m491.667 172.863 7.2-12h35l-7.2 12Z"/><rect width="35" height="17.137" x="491.667" y="172.863" fill="#fac858" rx="1"/><text x="509.167" y="157.863" fill="#333" font-size="9" text-anchor="middle">14.2</text><text x="130" y="22" fill="#333" font-size="12" font-weight="bold" text-anchor="middle" transform="translate(15 265)">Memory (KB)</text><path stroke="#e0e0e0" d="M65 405h195"/><text x="44" y="143" fill="#666" font-size="9" text-anchor="end" transform="translate(15 265)">0</text><path stroke="#e0e0e0" d="M65 380h195"/><text x="44" y="118" fill="#666" font-size="9" text-anchor="end" transform="translate(15 265)">275</text><path stroke="#e0e0e0" d="M65 355h195"/><text x="44" y="93" fill="#666" font-size="9" text-anchor="end" transform="translate(15 265)">550</text><path stroke="#e0e0e0" d="M65 330h195"/><text x="44" y="68" fill="#666" font-size="9" text-anchor="end" transform="translate(15 265)">825</text><path stroke="#e0e0e0" d="M65 305h195"/><text x="44" y="43" fill="#666" font-size="9" text-anchor="end" transform="translate(15 265)">1100</text><path stroke="#888" d="M65 405h195"/><g transform="translate(15 265)"><path fill="#213d93" d="m113 107.91 7.2-12V128l-7.2 12Z"/><path fill="#93afff" d="m68 107.91 7.2-12h45l-7.2 12Z"/><rect width="45" height="32.091" x="68" y="107.909" fill="#5470c6" rx="1"/></g><text x="90.5" y="92.909" fill="#333" font-size="9" text-anchor="middle" transform="translate(15 265)">353</text><text x="90.5" y="148" fill="#333" font-size="8" text-anchor="end" transform="rotate(-40 462.04 259.894)">autoscale_cu…</text><g transform="translate(15 265)"><path fill="#5e9942" d="m170 107.91 7.2-12V128l-7.2 12Z"/><path fill="#d0ffb4" d="m125 107.91 7.2-12h45l-7.2 12Z"/><rect width="45" height="32.091" x="125" y="107.909" fill="#91cc75" rx="1"/></g><text x="147.5" y="92.909" fill="#333" font-size="9" text-anchor="middle" transform="translate(15 265)">353</text><text x="147.5" y="148" fill="#333" font-size="8" text-anchor="end" transform="rotate(-40 519.04 259.894)">scalable_cuc…</text><g transform="translate(15 265)"><path fill="#c79525" d="m227 46.907 7.2-12V128l-7.2 12Z"/><path fill="#ffff97" d="m182 46.907 7.2-12h45l-7.2 12Z"/><rect width="45" height="93.093" x="182" y="46.907" fill="#fac858" rx="1"/></g><text x="204.5" y="31.907" fill="#333" font-size="9" text-anchor="middle" transform="translate(15 265)">1024</text><text x="204.5" y="148" fill="#333" font-size="8" text-anchor="end" transform="rotate(-40 576.04 259.894)">cuckoofilter</text><text x="130" y="22" fill="#333" font-size="12" font-weight="bold" text-anchor="middle" transform="translate(295 265)">FPP (%)</text><path stroke="#e0e0e0" d="M345 405h195"/><text x="44" y="143" fill="#666" font-size="9" text-anchor="end" transform="translate(295 265)">0.00</text><path stroke="#e0e0e0" d="M345 380h195"/><text x="44" y="118" fill="#666" font-size="9" text-anchor="end" transform="translate(295 265)">0.07</text><path stroke="#e0e0e0" d="M345 355h195"/><text x="44" y="93" fill="#666" font-size="9" text-anchor="end" transform="translate(295 265)">0.15</text><path stroke="#e0e0e0" d="M345 330h195"/><text x="44" y="68" fill="#666" font-size="9" text-anchor="end" transform="translate(295 265)">0.22</text><path stroke="#e0e0e0" d="M345 305h195"/><text x="44" y="43" fill="#666" font-size="9" text-anchor="end" transform="translate(295 265)">0.30</text><path stroke="#888" d="M345 405h195"/><g transform="translate(295 265)"><path fill="#213d93" d="m113 83.333 7.2-12V128l-7.2 12Z"/><path fill="#93afff" d="m68 83.333 7.2-12h45l-7.2 12Z"/><rect width="45" height="56.667" x="68" y="83.333" fill="#5470c6" rx="1"/></g><text x="90.5" y="68.333" fill="#333" font-size="9" text-anchor="middle" transform="translate(295 265)">0.17</text><text x="90.5" y="148" fill="#333" font-size="8" text-anchor="end" transform="rotate(-40 602.04 -124.753)">autoscale_cu…</text><g transform="translate(295 265)"><path fill="#5e9942" d="m170 88.667 7.2-12V128l-7.2 12Z"/><path fill="#d0ffb4" d="m125 88.667 7.2-12h45l-7.2 12Z"/><rect width="45" height="51.333" x="125" y="88.667" fill="#91cc75" rx="1"/></g><text x="147.5" y="73.667" fill="#333" font-size="9" text-anchor="middle" transform="translate(295 265)">0.15</text><text x="147.5" y="148" fill="#333" font-size="8" text-anchor="end" transform="rotate(-40 659.04 -124.753)">scalable_cuc…</text><g transform="translate(295 265)"><path fill="#c79525" d="m227 51.667 7.2-12V128l-7.2 12Z"/><path fill="#ffff97" d="m182 51.667 7.2-12h45l-7.2 12Z"/><rect width="45" height="88.333" x="182" y="51.667" fill="#fac858" rx="1"/></g><text x="204.5" y="36.667" fill="#333" font-size="9" text-anchor="middle" transform="translate(295 265)">0.27</text><text x="204.5" y="148" fill="#333" font-size="8" text-anchor="end" transform="rotate(-40 716.04 -124.753)">cuckoofilter</text><g transform="translate(0 478)"><rect width="12" height="12" x="55" fill="#5470c6" rx="2"/><text x="71" y="10" fill="#333" font-size="10">autoscale_cuckoo_filter</text><rect width="12" height="12" x="230" fill="#91cc75" rx="2"/><text x="246" y="10" fill="#333" font-size="10">scalable_cuckoo_filter</text><rect width="12" height="12" x="405" fill="#fac858" rx="2"/><text x="421" y="10" fill="#333" font-size="10">cuckoofilter</text></g></svg>