<svg xmlns="http://www.w3.org/2000/svg" viewBox="0 0 580 500"><path fill="#fff" d="M0 0h580v500H0z"/><text x="290" y="28" fill="#333" font-size="14" font-weight="bold" text-anchor="middle">性能 (百万次/秒)</text><path stroke="#e0e0e0" d="M55 190h500"/><text x="47" y="194" fill="#666" font-size="10" text-anchor="end">0</text><path stroke="#e0e0e0" d="M55 161h500"/><text x="47" y="165" fill="#666" font-size="10" text-anchor="end">20</text><path stroke="#e0e0e0" d="M55 132h500"/><text x="47" y="136" fill="#666" font-size="10" text-anchor="end">40</text><path stroke="#e0e0e0" d="M55 103h500"/><text x="47" y="107" fill="#666" font-size="10" text-anchor="end">60</text><path stroke="#e0e0e0" d="M55 74h500"/><text x="47" y="78" fill="#666" font-size="10" text-anchor="end">80</text><path stroke="#e0e0e0" d="M55 45h500"/><text x="47" y="49" fill="#666" font-size="10" text-anchor="end">100</text><path stroke="#888" d="M55 190h500M55 45v145"/><text x="138.333" y="210" fill="#333" font-size="11" text-anchor="middle">查询</text><path fill="#213d93" d="m113.333 48.068 7.2-12V178l-7.2 12Z"/><path fill="#93afff" d="m78.333 48.068 7.2-12h35l-7.2 12Z"/><rect width="35" height="141.932" x="78.333" y="48.068" fill="#5470c6" rx="1"/><text x="95.833" y="33.068" fill="#333" font-size="9" text-anchor="middle">97.9</text><path fill="#5e9942" d="m153.333 164.648 7.2-12V178l-7.2 12Z"/><path fill="#d0ffb4" d="m118.333 164.648 7.2-12h35l-7.2 12Z"/><rect width="35" height="25.352" x="118.333" y="164.648" fill="#91cc75" rx="1"/><text x="135.833" y="149.648" fill="#333" font-size="9" text-anchor="middle">17.5</text><path fill="#c79525" d="m193.333 159.076 7.2-12V178l-7.2 12Z"/><path fill="#ffff97" d="m158.333 159.076 7.2-12h35l-7.2 12Z"/><rect width="35" height="30.924" x="158.333" y="159.076" fill="#fac858" rx="1"/><text x="175.833" y="144.076" fill="#333" font-size="9" text-anchor="middle">21.3</text><text x="305" y="210" fill="#333" font-size="11" text-anchor="middle">添加</text><path fill="#213d93" d="m280 140.858 7.2-12V178l-7.2 12Z"/><path fill="#93afff" d="m245 140.858 7.2-12h35l-7.2 12Z"/><rect width="35" height="49.142" x="245" y="140.858" fill="#5470c6" rx="1"/><text x="262.5" y="125.858" fill="#333" font-size="9" text-anchor="middle">33.9</text><path fill="#5e9942" d="m320 174.845 7.2-12V178l-7.2 12Z"/><path fill="#d0ffb4" d="m285 174.845 7.2-12h35l-7.2 12Z"/><rect width="35" height="15.155" x="285" y="174.845" fill="#91cc75" rx="1"/><text x="302.5" y="159.845" fill="#333" font-size="9" text-anchor="middle">10.5</text><path fill="#c79525" d="m360 157.808 7.2-12V178l-7.2 12Z"/><path fill="#ffff97" d="m325 157.808 7.2-12h35l-7.2 12Z"/><rect width="35" height="32.192" x="325" y="157.808" fill="#fac858" rx="1"/><text x="342.5" y="142.808" fill="#333" font-size="9" text-anchor="middle">22.2</text><text x="471.667" y="210" fill="#333" font-size="11" text-anchor="middle">删除</text><path fill="#213d93" d="m446.667 106.566 7.2-12V178l-7.2 12Z"/><path fill="#93afff" d="m411.667 106.566 7.2-12h35l-7.2 12Z"/><rect width="35" height="83.434" x="411.667" y="106.566" fill="#5470c6" rx="1"/><text x="429.167" y="91.566" fill="#333" font-size="9" text-anchor="middle">57.5</text><path fill="#5e9942" d="m486.667 163.75 7.2-12V178l-7.2 12Z"/><path fill="#d0ffb4" d="m451.667 163.75 7.2-12h35l-7.2 12Z"/><rect width="35" height="26.25" x="451.667" y="163.75" fill="#91cc75" rx="1"/><text x="469.167" y="148.75" fill="#333" font-size="9" text-anchor="middle">18.1</text><path fill="#c79525" d="m526.667 173.144 7.2-12V178l-7.2 12Z"/><path fill="#ffff97" d="m491.667 173.144 7.2-12h35l-7.2 12Z"/><rect width="35" height="16.856" x="491.667" y="173.144" fill="#fac858" rx="1"/><text x="509.167" y="158.144" fill="#333" font-size="9" text-anchor="middle">11.6</text><text x="130" y="22" fill="#333" font-size="12" font-weight="bold" text-anchor="middle" transform="translate(15 265)">内存 (KB)</text><path stroke="#e0e0e0" d="M65 405h195"/><text x="44" y="143" fill="#666" font-size="9" text-anchor="end" transform="translate(15 265)">0</text><path stroke="#e0e0e0" d="M65 380h195"/><text x="44" y="118" fill="#666" font-size="9" text-anchor="end" transform="translate(15 265)">275</text><path stroke="#e0e0e0" d="M65 355h195"/><text x="44" y="93" fill="#666" font-size="9" text-anchor="end" transform="translate(15 265)">550</text><path stroke="#e0e0e0" d="M65 330h195"/><text x="44" y="68" fill="#666" font-size="9" text-anchor="end" transform="translate(15 265)">825</text><path stroke="#e0e0e0" d="M65 305h195"/><text x="44" y="43" fill="#666" font-size="9" text-anchor="end" transform="translate(15 265)">1100</text><path stroke="#888" d="M65 405h195"/><g transform="translate(15 265)"><path fill="#213d93" d="m113 107.91 7.2-12V128l-7.2 12Z"/><path fill="#93afff" d="m68 107.91 7.2-12h45l-7.2 12Z"/><rect width="45" height="32.091" x="68" y="107.909" fill="#5470c6" rx="1"/></g><text x="90.5" y="92.909" fill="#333" font-size="9" text-anchor="middle" transform="translate(15 265)">353</text><text x="90.5" y="148" fill="#333" font-size="8" text-anchor="end" transform="rotate(-40 462.04 259.894)">autoscale_cu…</text><g transform="translate(15 265)"><path fill="#5e9942" d="m170 107.91 7.2-12V128l-7.2 12Z"/><path fill="#d0ffb4" d="m125 107.91 7.2-12h45l-7.2 12Z"/><rect width="45" height="32.091" x="125" y="107.909" fill="#91cc75" rx="1"/></g><text x="147.5" y="92.909" fill="#333" font-size="9" text-anchor="middle" transform="translate(15 265)">353</text><text x="147.5" y="148" fill="#333" font-size="8" text-anchor="end" transform="rotate(-40 519.04 259.894)">scalable_cuc…</text><g transform="translate(15 265)"><path fill="#c79525" d="m227 46.907 7.2-12V128l-7.2 12Z"/><path fill="#ffff97" d="m182 46.907 7.2-12h45l-7.2 12Z"/><rect width="45" height="93.093" x="182" y="46.907" fill="#fac858" rx="1"/></g><text x="204.5" y="31.907" fill="#333" font-size="9" text-anchor="middle" transform="translate(15 265)">1024</text><text x="204.5" y="148" fill="#333" font-size="8" text-anchor="end" transform="rotate(-40 576.04 259.894)">cuckoofilter</text><text x="130" y="22" fill="#333" font-size="12" font-weight="bold" text-anchor="middle" transform="translate(295 265)">误判率 (%)</text><path stroke="#e0e0e0" d="M345 405h195"/><text x="44" y="143" fill="#666" font-size="9" text-anchor="end" transform="translate(295 265)">0.00</text><path stroke="#e0e0e0" d="M345 380h195"/><text x="44" y="118" fill="#666" font-size="9" text-anchor="end" transform="translate(295 265)">0.07</text><path stroke="#e0e0e0" d="M345 355h195"/><text x="44" y="93" fill="#666" font-size="9" text-anchor="end" transform="translate(295 265)">0.15</text><path stroke="#e0e0e0" d="M345 330h195"/><text x="44" y="68" fill="#666" font-size="9" text-anchor="end" transform="translate(295 265)">0.22</text><path stroke="#e0e0e0" d="M345 305h195"/><text x="44" y="43" fill="#666" font-size="9" text-anchor="end" transform="translate(295 265)">0.30</text><path stroke="#888" d="M345 405h195"/><g transform="translate(295 265)"><path fill="#213d93" d="m113 83.333 7.2-12V128l-7.2 12Z"/><path fill="#93afff" d="m68 83.333 7.2-12h45l-7.2 12Z"/><rect width="45" height="56.667" x="68" y="83.333" fill="#5470c6" rx="1"/></g><text x="90.5" y="68.333" fill="#333" font-size="9" text-anchor="middle" transform="translate(295 265)">0.17</text><text x="90.5" y="148" fill="#333" font-size="8" text-anchor="end" transform="rotate(-40 602.04 -124.753)">autoscale_cu…</text><g transform="translate(295 265)"><path fill="#5e9942" d="m170 88.667 7.2-12V128l-7.2 12Z"/><path fill="#d0ffb4" d="m125 88.667 7.2-12h45l-7.2 12Z"/><rect width="45" height="51.333" x="125" y="88.667" fill="#91cc75" rx="1"/></g><text x="147.5" y="73.667" fill="#333" font-size="9" text-anchor="middle" transform="translate(295 265)">0.15</text><text x="147.5" y="148" fill="#333" font-size="8" text-anchor="end" transform="rotate(-40 659.04 -124.753)">scalable_cuc…</text><g transform="translate(295 265)"><path fill="#c79525" d="m227 51.667 7.2-12V128l-7.2 12Z"/><path fill="#ffff97" d="m182 51.667 7.2-12h45l-7.2 12Z"/><rect width="45" height="88.333" x="182" y="51.667" fill="#fac858" rx="1"/></g><text x="204.5" y="36.667" fill="#333" font-size="9" text-anchor="middle" transform="translate(295 265)">0.27</text><text x="204.5" y="148" fill="#333" font-size="8" text-anchor="end" transform="rotate(-40 716.04 -124.753)">cuckoofilter</text><g transform="translate(0 478)"><rect width="12" height="12" x="55" fill="#5470c6" rx="2"/><text x="71" y="10" fill="#333" font-size="10">autoscale_cuckoo_filter</text><rect width="12" height="12" x="230" fill="#91cc75" rx="2"/><text x="246" y="10" fill="#333" font-size="10">cuckoo_filter</text><rect width="12" height="12" x="405" fill="#fac858" rx="2"/><text x="421" y="10" fill="#333" font-size="10">cuckoofilter</text></g></svg>